# xmcd
#
# Track frame offsets: 
#        150
#        18744
#        33588
#        55383
#        69311
#        88322
#        107403
#        119046
#        132603
#        145326
#        159522
#
# Disc length: 2343 seconds
#
# Revision: 2
# Processed by: cddbd v1.5.2PL0 Copyright (c) Steve Scherf et al.
# Submitted via: ExactAudioCopy v1.0b4
#
DISCID=a509250b
DTITLE=Moreland and Arbuckle - Promised Land Or Bust
DYEAR=2016
DGENRE=Blues
TTITLE0=Take Me With You (When You Go)
TTITLE1=Mean And Evil
TTITLE2=Hanna
TTITLE3=When The Lights Are Burning Low
TTITLE4=Woman Down In Arkansas
TTITLE5=Mount Comfort
TTITLE6=Long Did I Hide It
TTITLE7=Waco Avenue
TTITLE8=I'm A King Bee
TTITLE9=Long Way Home
TTITLE10=Why'd She Have To Go (And Let Me Down)?
EXTD=
EXTT0=
EXTT1=
EXTT2=
EXTT3=
EXTT4=
EXTT5=
EXTT6=
EXTT7=
EXTT8=
EXTT9=
EXTT10=
PLAYORDER=
